# xmcd
#
# Track frame offsets: 
#        150
#        23671
#        45203
#        70260
#        96049
#        112108
#        131551
#        155725
#        174360
#        200824
#        215777
#        229594
#        260240
#        284054
#        302696
#
# Disc length: 4388 seconds
#
# Revision: 0
# Processed by: cddbd v1.5.2PL0 Copyright (c) Steve Scherf et al.
# Submitted via: ExactAudioCopy v1.3
#
DISCID=e011220f
DTITLE=Cameo Blues Band - All Play and No Work
DYEAR=2002
DGENRE=Blues
TTITLE0=Linda Lu
TTITLE1=Wide-assed Groove
TTITLE2=Crossroads
TTITLE3=Piston Poppin' Queen
TTITLE4=The Walk
TTITLE5=Highway 61
TTITLE6=Rockin' My Life Away
TTITLE7=Yah Yah
TTITLE8=Kind Hearted Woman
TTITLE9=Who's Been Making Love
TTITLE10=You Can't Sit Down
TTITLE11=Going to Chicago
TTITLE12=Why Can't You Be Happy
TTITLE13=Mercury Blues
TTITLE14=Kansas City
EXTD=
EXTT0=
EXTT1=
EXTT2=
EXTT3=
EXTT4=
EXTT5=
EXTT6=
EXTT7=
EXTT8=
EXTT9=
EXTT10=
EXTT11=
EXTT12=
EXTT13=
EXTT14=
PLAYORDER=
